<?xml version="1.0" encoding="utf-8"?>
<!-- Generator: Adobe Illustrator 23.1.0, SVG Export Plug-In . SVG Version: 6.00 Build 0)  -->
<svg version="1.1" id="Layer_1" xmlns="http://www.w3.org/2000/svg" xmlns:xlink="http://www.w3.org/1999/xlink" x="0px" y="0px"
	 viewBox="0 0 500 368" style="enable-background:new 0 0 500 368;" xml:space="preserve">
<style type="text/css">
	.st0{fill:url(#SVGID_1_);}
	.st1{fill:#FFFFFF;}
</style>
<linearGradient id="SVGID_1_" gradientUnits="userSpaceOnUse" x1="-998" y1="-168" x2="-630" y2="-168" gradientTransform="matrix(6.123234e-17 -1 -1 -6.123234e-17 82 -630)">
	<stop  offset="3.110000e-02" style="stop-color:#22D393"/>
	<stop  offset="1" style="stop-color:#D3FF7F"/>
</linearGradient>
<polygon class="st0" points="500,0 500,368 0,368 0,0 "/>
<path class="st1" d="M283.5,87h-67c-4.3,0-8.4,1.7-11.4,4.7l-47.3,47.3c-3,3-4.7,7.2-4.7,11.4v67c0,4.3,1.7,8.4,4.7,11.4l47.3,47.3
	c3,3,7.2,4.7,11.4,4.7h67c4.3,0,8.4-1.7,11.4-4.7l47.3-47.3c3-3,4.7-7.2,4.7-11.4v-67c0-4.3-1.7-8.4-4.7-11.4l-47.3-47.3
	C291.9,88.7,287.8,87,283.5,87z M294.9,170c0,5.2-4.2,9.5-9.5,9.5h-21.5v60c-0.2,5.4-4.4,9.5-9.5,9.5h-8.5c-5.2,0-9.5-4.2-9.5-9.5
	v-60h-21.7c-5.2,0-9.5-4.2-9.5-9.5v-8.5c0-5.2,4.2-9.5,9.5-9.5h21.7v-23.5c0-5.2,4.2-9.5,9.5-9.5h8.5c5.2,0,9.5,4.2,9.5,9.5v23.5
	h21.5c5.2,0,9.5,4.2,9.5,9.5V170z"/>
</svg>
