<?xml version="1.0" encoding="utf-8"?>
<!-- Generator: Adobe Illustrator 23.0.3, SVG Export Plug-In . SVG Version: 6.00 Build 0)  -->
<svg version="1.1" id="Layer_1" xmlns="http://www.w3.org/2000/svg" xmlns:xlink="http://www.w3.org/1999/xlink" x="0px" y="0px"
	 viewBox="0 0 500 368" style="enable-background:new 0 0 500 368;" xml:space="preserve">
<style type="text/css">
	.st0{fill:url(#SVGID_1_);}
	.st1{fill:#FFFFFF;}
</style>
<linearGradient id="SVGID_1_" gradientUnits="userSpaceOnUse" x1="66" y1="184" x2="434" y2="184" gradientTransform="matrix(6.123234e-17 -1 1 6.123234e-17 66 434)">
	<stop  offset="0.0311" style="stop-color:#22D393"/>
	<stop  offset="1" style="stop-color:#D3FF7F"/>
</linearGradient>
<polygon class="st0" points="500,0 500,368 0,368 0,0 "/>
<path class="st1" d="M298.57,165.5h-43.94v16.19c0,11.48-9.34,20.81-20.81,20.81c-11.48,0-20.81-9.34-20.81-20.81v-35.15
	l-18.76,11.27c-5.58,3.32-8.99,9.37-8.99,15.84v13.67l-23.13,13.36c-4.42,2.54-5.96,8.21-3.38,12.63l23.13,40.07
	c2.54,4.42,8.21,5.93,12.63,3.38l29.89-17.26h39.49c10.2,0,18.5-8.3,18.5-18.5h4.63c5.12,0,9.25-4.13,9.25-9.25v-18.5h2.31
	c3.84,0,6.94-3.09,6.94-6.94v-13.88C305.51,168.59,302.42,165.5,298.57,165.5z M341.27,154.69l-23.13-40.07
	c-2.54-4.42-8.21-5.93-12.63-3.38l-29.89,17.26h-29.54c-3.47,0-6.85,0.98-9.8,2.8l-9.68,6.04c-2.72,1.68-4.34,4.65-4.34,7.83v36.51
	c0,6.39,5.17,11.56,11.56,11.56s11.56-5.17,11.56-11.56v-25.44h53.19c8.93,0,16.19,7.26,16.19,16.19v8.24l23.13-13.36
	C342.31,164.75,343.82,159.11,341.27,154.69z"/>
</svg>
