<?xml version="1.0" encoding="utf-8"?>
<!-- Generator: Adobe Illustrator 23.0.3, SVG Export Plug-In . SVG Version: 6.00 Build 0)  -->
<svg version="1.1" xmlns="http://www.w3.org/2000/svg" xmlns:xlink="http://www.w3.org/1999/xlink" x="0px" y="0px"
	 viewBox="0 0 500 368" style="enable-background:new 0 0 500 368;" xml:space="preserve">
<style type="text/css">
	.st0{fill:url(#SVGID_1_);}
	.st1{fill:#FFFFFF;}
</style>
<g id="Layer_1">
	
		<linearGradient id="SVGID_1_" gradientUnits="userSpaceOnUse" x1="66" y1="184" x2="434" y2="184" gradientTransform="matrix(6.123234e-17 -1 1 6.123234e-17 66 434)">
		<stop  offset="0.0311" style="stop-color:#22D393"/>
		<stop  offset="1" style="stop-color:#D3FF7F"/>
	</linearGradient>
	<polygon class="st0" points="500,0 500,368 0,368 0,0 	"/>
	<path class="st1" d="M268.5,147c10.22,0,18.5-8.28,18.5-18.5s-8.28-18.5-18.5-18.5s-18.5,8.28-18.5,18.5S258.28,147,268.5,147z
		 M259.65,196.07c4.06,4.83,11.27,5.52,16.18,1.51l25.44-20.82c4.94-4.04,5.66-11.33,1.62-16.27c-4.04-4.95-11.33-5.66-16.28-1.62
		l-16.6,13.59l-11.25-13.39c-4.46-5.32-11.34-8.07-18.5-7.32c-6.99,0.72-13.08,4.7-16.29,10.67l-14.27,26.6
		c-6.76,12.61-2.51,27.86,9.88,35.77l12.95,10.09h-26.47c-6.39,0-11.56,5.18-11.56,11.56S199.68,258,206.06,258h60.13
		c9.85,0,15.54-12.37,8.17-19.74l-31.76-31.76l10.06-18.75L259.65,196.07z"/>
</g>
<g id="Layer_2">
</g>
</svg>
