<?xml version="1.0" encoding="UTF-8"?>
<!-- Generator: Adobe Illustrator 23.0.3, SVG Export Plug-In . SVG Version: 6.00 Build 0)  -->
<svg xmlns="http://www.w3.org/2000/svg" xmlns:xlink="http://www.w3.org/1999/xlink" version="1.1" id="Layer_1" x="0px" y="0px" viewBox="0 0 500 368" style="enable-background:new 0 0 500 368;" xml:space="preserve">
<style type="text/css">
	.st0{fill:url(#SVGID_1_);}
	.st1{fill:#FFFFFF;}
</style>
<linearGradient id="SVGID_1_" gradientUnits="userSpaceOnUse" x1="-64" y1="184" x2="304" y2="184" gradientTransform="matrix(6.123234e-17 -1 1 6.123234e-17 66 304)">
	<stop offset="3.110000e-02" style="stop-color:#22D393"></stop>
	<stop offset="1" style="stop-color:#D3FF7F"></stop>
</linearGradient>
<polygon class="st0" points="500,0 500,368 0,368 0,0 "></polygon>
<path class="st1" d="M193.1,246.5c-1.2,5,1.8,10,6.7,11.2c0.8,0.2,1.5,0.3,2.3,0.3c4.1,0,7.9-2.8,9-7l7.3-29.2l-15.2-15.2  L193.1,246.5L193.1,246.5z M197.4,189.8l11.9-46c0.6-2.4-0.9-4.9-3.4-5.5c-12.7-3-25.5,4.4-28.7,16.5l-7.3,28.3  c-0.6,2.4,0.9,4.9,3.4,5.5l18.4,4.4C194.2,193.7,196.8,192.2,197.4,189.8z M276,156.3h-4.6c-2.6,0-4.6,2.1-4.6,4.6v4.6h-10  L243.2,152c-3.2-3.2-7.5-5-12-5c-7.8,0-14.6,5.3-16.5,12.9L207,191c-0.8,3.2,0.1,6.5,2.4,8.8l25,25v23.9c0,5.1,4.1,9.2,9.2,9.2  c5.1,0,9.2-4.1,9.2-9.2v-23.9c0-4.9-1.9-9.6-5.4-13.1L234,198.2c0-0.1,0.1-0.3,0.2-0.4l5.7-23l6.5,6.5c1.7,1.7,4.1,2.7,6.5,2.7h13.9  v69.3c0,2.6,2.1,4.6,4.6,4.6h4.6c2.6,0,4.6-2.1,4.6-4.6v-92.4C280.7,158.3,278.6,156.3,276,156.3z M239.1,137.8  c7.7,0,13.9-6.2,13.9-13.9s-6.2-13.9-13.9-13.9s-13.9,6.2-13.9,13.9S231.4,137.8,239.1,137.8z"></path>
<path class="st1" d="M342.7,135.6v4.3c0,2.6-2.1,4.8-4.8,4.8h-10.8v30.2c-0.1,2.7-2.2,4.8-4.8,4.8H318c-2.6,0-4.8-2.1-4.8-4.8v-30.2  h-10.9c-2.6,0-4.8-2.1-4.8-4.8v-4.3c0-2.6,2.1-4.8,4.8-4.8h10.9V119c0-2.6,2.1-4.8,4.8-4.8h4.3c2.6,0,4.8,2.1,4.8,4.8v11.8h10.8  C340.5,130.8,342.7,132.9,342.7,135.6z"></path>
</svg>
