<?xml version="1.0" encoding="utf-8"?>
<!-- Generator: Adobe Illustrator 24.1.1, SVG Export Plug-In . SVG Version: 6.00 Build 0)  -->
<svg version="1.1" id="Layer_1" xmlns="http://www.w3.org/2000/svg" xmlns:xlink="http://www.w3.org/1999/xlink" x="0px" y="0px"
	 viewBox="0 0 1904.8 500" style="enable-background:new 0 0 1904.8 500;" xml:space="preserve">
<style type="text/css">
	.st0{display:none;}
	.st1{display:inline;fill:#A9D2D8;}
	.st2{display:inline;}
	.st3{fill:#FFFFFF;}
	.st4{fill:none;}
	.st5{fill:#0092FF;}
</style>
<g id="OG_lines" class="st0">
	<circle class="st1" cx="-2416.5" cy="2489.5" r="489"/>
	<g class="st2">
		<path class="st3" d="M-2387.9,2166.6c-4.6,2.7-8.7,5.8-12.1,9.3c-3.4,3.5-6,7.5-8,11.6c-3.9,8.2-5,17.4-4.3,27
			c0.1,1.2,0.2,2.5,0.3,3.7l0.2,1.8l0.3,1.8c0.4,2.4,0.9,4.7,1.4,7c1.2,4.5,2.8,8.6,4.8,12.4c4.1,7.6,9.7,14.2,16.8,20.5
			c7.1,6.2,15.7,12,25.1,17.5c9.4,5.5,19.7,10.7,30.5,15.8s22,10.1,33.5,15.3c11.5,5.1,23.3,10.4,35.2,15.8
			c11.9,5.5,24,11.3,36.2,17.4c12.2,6.1,24.4,12.7,36.7,19.9c6.1,3.6,12.2,7.3,18.3,11.2s12.2,7.9,18.2,12.1
			c12.1,8.4,23.9,17.6,35.5,27.4c11.6,9.8,22.8,20.4,33.6,31.8c2.7,2.8,5.3,5.7,7.9,8.6c2.6,3,5.3,6.2,7.9,9.3
			c5.1,6.3,10.1,12.7,14.8,19.3c18.8,26.2,34.2,54.1,46.7,82.9c6.3,14.4,11.8,28.9,16.8,43.6c4.9,14.7,9.2,29.5,12.9,44.4
			c7.5,29.7,12.8,59.7,16.3,89.6c6.8,59.7,7,119.1,2.7,177.1c-2.3,29-5.3,57.9-9.4,86.3c-4.1,28.5-9.1,56.7-14.7,84.6
			c-5.7,27.9-12.1,55.6-19,83s-14.5,54.6-22.4,81.6l-1.7,5.7c-29,98.5-132.3,154.8-230.7,125.8s-154.8-132.3-125.8-230.7
			c5.8-19.7,15-38.3,26.1-54.2c13.2-18.9,25.9-38,38.1-57.3c12.2-19.3,23.7-38.9,34.6-58.6c11-19.7,21.2-39.7,30.8-59.8l1.8-3.8
			l1.7-3.8l3.5-7.6l3.4-7.6c1.1-2.5,2.3-5.1,3.3-7.6c4.5-10.1,8.5-20.3,12.5-30.5c15.8-40.9,28.2-82.2,35.4-123.5
			c3.6-20.6,6-41.2,6.9-61.5c1-20.3,0.2-40.4-2.2-59.9s-6.5-38.4-12.6-56.2c-1.5-4.5-3.1-8.8-4.9-13.1c-0.9-2.2-1.8-4.2-2.7-6.4
			c-1-2.2-2.1-4.5-3.1-6.7c-4.4-8.9-9.3-17.8-14.8-26.5s-11.8-17.3-18.5-25.7c-6.8-8.4-14.1-16.7-22-24.8s-16.3-16.1-25-24
			c-8.8-7.9-18-15.6-27.6-23.4c-19.1-15.6-39.5-31.1-60.3-48.3c-10.4-8.7-20.9-17.8-31.2-28.1s-20.4-21.6-29.2-35
			c-4.4-6.7-8.4-13.9-11.7-21.5s-5.9-15.8-7.6-24c-1.7-8.2-2.4-16.6-2.2-24.7c0.1-4.1,0.4-8.1,0.8-12c0.2-2,0.5-3.9,0.8-5.8
			s0.7-3.8,1.1-5.7c1.7-7.7,4.3-15.5,7.8-22.9s8.2-14.4,13.7-20.4s11.9-11.2,18.7-15.1c6.8-4,13.9-6.8,21.1-8.7
			c6.9-1.8,14,2.4,15.8,9.3c1.5,5.8-1.1,11.6-6.1,14.5L-2387.9,2166.6z"/>
	</g>
	<g class="st2">
		<path class="st3" d="M-2474,2128.6c-4.6,1.6-9,3.4-13.4,5.4s-8.7,4.2-12.9,6.6c-8.4,4.8-16.5,10.2-24,16.2
			c-15.1,11.9-28.2,25.9-38.3,41.3c-10.1,15.3-17.1,31.8-20.4,48.3c-0.8,4.1-1.3,8.3-1.7,12.3c-0.3,4.1-0.4,8.2-0.3,12.2
			c0.3,8.1,1.4,16,3.3,23.8c3.8,15.5,10.8,30.3,20.1,44.1c2.3,3.5,4.8,6.9,7.3,10.2c1.3,1.7,2.6,3.3,3.9,5l4.9,6
			c6.7,8.3,13.5,16.8,20.2,25.6c13.5,17.7,26.8,36.6,39.1,57.4c12.2,20.8,23.4,43.4,32.2,68.5c4.4,12.5,8.2,25.6,11.1,39.3
			c2.9,13.6,4.9,27.9,5.9,42.4c0.9,14.6,0.8,29.5-0.5,44.4s-3.9,29.9-7.4,44.5c-7.1,29.4-18.5,57.3-32.3,82.8s-30,48.6-47.1,69.7
			c-17.2,21.2-35.4,40.3-54.1,58.1c-18.8,17.7-37.9,34.2-57.4,49.6c-39,30.7-78.9,57.8-119.2,82.8l-5.9,3.6
			c-75.8,47.1-175.5,23.8-222.6-52s-23.8-175.5,52-222.6c17.1-10.6,36.1-17.8,54.8-21.4c9.1-1.7,18.1-3.6,27.1-5.5
			c8.9-1.9,17.8-4,26.5-6.2c8.8-2.2,17.4-4.5,25.9-6.9s16.9-5,25.1-7.7c33-10.6,63.5-23.5,89.5-38.4c6.5-3.7,12.6-7.6,18.4-11.6
			s11.2-8.1,16.3-12.3c10.2-8.4,18.8-17.2,26-26.9c7.1-9.7,12.8-20.3,16.8-32.6s6.2-26.4,6.2-42c0.1-15.6-2.1-32.4-5.9-49.9
			c-3.8-17.5-9.3-35.7-15.9-54.3c-3.3-9.3-6.9-18.8-10.6-28.5l-1.4-3.6l-0.7-1.8c-0.2-0.6-0.5-1.2-0.8-1.9c-1.2-2.9-2.5-5.7-3.6-8.6
			c-2.3-5.8-4.5-11.6-6.5-17.6l-1.5-4.5c-0.5-1.5-0.9-3-1.4-4.6c-0.4-1.5-0.9-3-1.3-4.6l-1.2-4.6c-0.8-3.1-1.5-6.2-2.2-9.3
			c-0.6-3.1-1.3-6.3-1.8-9.4c-2.1-12.7-3.2-25.6-3-38.5c0.3-25.9,6.1-51.7,16.6-74.3c10.4-22.8,25.1-42.4,41.8-58.8
			c16.8-16.3,35.5-29.6,55.4-40.1c5-2.6,10.1-5,15.2-7.3c5.1-2.3,10.3-4.3,15.6-6.2c10.5-3.7,21.3-6.8,32.2-8.8
			c6.5-1.2,12.8,3.1,14.1,9.6c1.1,6-2.4,11.7-7.9,13.6H-2474z"/>
	</g>
</g>
<polygon class="st4" points="-921.4,-1371.8 -927.9,-1371.8 -927.9,-1371.8 "/>
<g>
	<g>
		<path class="st5" d="M471.4,230.2c1.7,30.9-2.8,61.1-12.9,88.1c-0.6,1.7-1.7,3.4-3.4,3.4c-1.7,0-3.4-1.1-3.4-2.2
			c-1.7-6.7-3.4-13.5-5.6-19.6c-2.2-6.7-4.5-12.9-7.3-19.6c-5.6-12.9-12.3-25.2-20.8-37c-2.2-2.8-4.5-5.6-6.7-8.4
			c-1.1-1.7-2.2-2.8-3.4-3.9c-1.1-1.1-2.2-2.8-3.4-3.9c-5-5-10.1-10.1-15.1-14s-10.7-8.4-15.7-12.3c-2.8-1.7-5.6-3.9-7.9-5.6
			c-2.2-1.7-5.6-3.4-8.4-5c-5.6-3.4-11.2-6.2-16.3-9c-5.6-2.8-10.7-5.6-16.3-7.9c-5.6-2.2-10.7-5-15.7-7.3c-5-2.2-10.1-4.5-15.1-6.7
			s-9.5-4.5-13.5-7.3c-3.9-2.8-7.9-5-11.2-7.9c-3.4-2.8-5.6-5.6-7.3-9c-1.1-1.7-1.7-3.4-2.2-5.6c0-1.1-0.6-2.2-0.6-3.4v-0.6v-0.6
			c0-0.6,0-1.1,0-1.7c-0.6-4.5,0-8.4,1.7-11.8c1.1-1.7,2.2-3.4,3.4-5c1.7-1.7,3.4-2.8,5.6-3.9l0,0c2.2-1.1,3.4-3.9,2.8-6.2
			c-0.6-3.4-3.9-5-7.3-3.9c-3.4,0.6-6.7,2.2-9.5,3.9c-2.8,1.7-5.6,3.9-8.4,6.7c-2.2,2.8-4.5,5.6-6.2,9s-2.8,6.7-3.4,10.1
			c0,1.1-0.6,1.7-0.6,2.8c0,0.6,0,1.7-0.6,2.8c0,1.7-0.6,3.4-0.6,5.6c0,3.4,0,7.3,1.1,11.2c0.6,3.9,1.7,7.3,3.4,10.7s3.4,6.7,5,9.5
			c3.9,6.2,8.4,11.2,12.9,15.7c4.5,4.5,9.5,8.4,14,12.3c9.5,7.9,18.5,14.6,26.9,21.9c4.5,3.4,8.4,6.7,12.3,10.7
			c3.9,3.4,7.9,7.3,11.2,10.7c3.4,3.4,6.7,7.3,10.1,11.2s5.6,7.3,8.4,11.2c2.2,3.9,4.5,7.9,6.7,11.8c0.6,1.1,1.1,2.2,1.7,2.8
			c0.6,1.1,1.1,1.7,1.1,2.8c0.6,1.7,1.7,3.9,2.2,5.6c2.8,7.9,4.5,16.3,5.6,25.2c1.1,9,1.7,18,1.1,26.9c-0.6,9-1.7,18.5-2.8,27.5
			c-3.4,18.5-9,37-15.7,55.5c-1.7,4.5-3.4,9-5.6,13.5c-0.6,1.1-1.1,2.2-1.7,3.4l-1.7,3.4l-1.7,3.4h-1.7l-0.6,1.7
			c-1.1,2.2-2.2,4.5-3.4,6.7c-0.6,1.1-1.7,2.2-3.4,2.8c-21.9,7.3-44.9,11.2-69,11.2c-23,0-45.4-3.4-66.2-10.1c-3.9-1.1-5-6.2-2.2-9
			c8.4-7.9,16.3-16.3,24.1-25.2c7.3-8.4,14-17.4,20.8-26.9c6.7-9.5,12.9-20.2,18-32c2.8-6.2,4.5-12.3,6.7-18.5
			c1.7-6.7,2.8-13.5,3.9-20.2c0.6-6.7,0.6-14,0-20.8s-1.7-13.5-3.9-20.2c-1.7-6.2-3.9-12.3-6.7-18s-5.6-10.7-8.4-15.1
			c-6.2-9.5-12.3-17.4-18.5-24.7l-5-6.2l-2.2-2.8l-1.1-1.1l-0.6-0.6l0,0l0,0c-2.2-2.8-4.5-5.6-6.7-9c-4.5-6.2-7.9-12.9-10.7-19.6
			c-2.8-6.7-4.5-14-5-21.3c-0.6-7.3,0-15.1,2.2-23c0.6-1.7,1.1-3.9,1.7-5.6c0.6-1.7,1.7-3.9,2.2-5.6c1.7-3.9,3.9-7.3,5.6-10.7
			c4.5-6.7,10.1-13.5,16.8-18.5l0,0c2.2-1.7,2.8-4.5,1.7-6.7c-1.1-2.8-4.5-3.9-7.3-2.2c-8.4,4.5-16.8,9.5-24.1,16.3
			c-1.7,1.7-3.9,3.4-5.6,5c-1.7,1.7-3.4,3.4-5,5.6c-3.4,3.9-6.2,7.9-9,12.3c-5.6,9-9.5,19.1-11.8,29.2c-0.6,2.8-1.1,5-1.7,7.9
			c-0.6,2.8-0.6,5.6-0.6,8.4s0,5.6,0,8.4s0,5.6,0.6,8.4c0.6,5.6,1.1,10.7,2.8,16.3c1.1,5,2.8,10.7,4.5,15.7s3.9,10.1,6.2,15.1
			l2.8,6.7l2.8,6.2c3.4,8.4,6.2,15.7,7.9,22.4s2.2,12.9,1.7,18c-0.6,2.8-1.1,5-1.7,6.7s-1.7,3.9-2.8,5.6s-2.2,3.9-3.9,5.6
			s-3.4,3.9-5,5.6c-3.9,3.9-8.4,7.9-14,11.8c-5,3.9-11.2,7.9-17.4,11.2c-6.2,3.9-12.9,7.3-20.2,10.7c-6.7,3.4-14,6.7-21.9,9.5
			c-6.2,2.8-12.9,5-19.1,7.9c-2.2,1.1-5,0-6.2-2.2c-24.1-34.2-37-75.2-37-119.5C34.4,117.4,141,16.5,268.9,25.4
			C377.2,32.7,465.3,121.9,471.4,230.2z"/>
	</g>
</g>
<path class="st5" d="M536.2,216.9V30.1h51.3v71l56.8-71h57.9l-67.9,83.6l72.6,103.1H648l-46.3-68.6L587.5,163v53.9H536.2z"/>
<path class="st5" d="M775.5,125.1v91.8h-51.3V30.1h40l75,94.9V30.1h51.3v186.7h-40.8L775.5,125.1z"/>
<path class="st5" d="M1013.3,218.5c-14.2,0-27.1-2.7-38.7-8.2c-11.6-5.4-21.5-12.6-29.7-21.4c-8.2-8.9-14.6-19-19.2-30.4
	c-4.6-11.4-6.8-23.1-6.8-35.2c0-12.3,2.4-24.1,7.1-35.5c4.7-11.4,11.4-21.4,19.9-30.1C954.3,49,964.4,42,976,36.9
	c11.7-5.2,24.4-7.8,38.3-7.8c14.2,0,27.1,2.7,38.7,8.2c11.6,5.4,21.5,12.6,29.7,21.6c8.2,8.9,14.6,19.1,19.1,30.5s6.7,23.1,6.7,35
	c0,12.3-2.4,24.1-7.1,35.4s-11.3,21.3-19.7,30c-8.4,8.7-18.5,15.6-30.1,20.9C1039.9,215.8,1027.1,218.5,1013.3,218.5z M970.9,123.8
	c0,6.3,0.9,12.4,2.6,18.3c1.8,5.9,4.4,11.1,7.9,15.6c3.5,4.6,7.9,8.2,13.3,11c5.3,2.8,11.7,4.2,19.1,4.2s13.8-1.4,19.2-4.3
	c5.4-2.9,9.9-6.7,13.3-11.3s6-9.9,7.6-15.9c1.7-6,2.5-12,2.5-18.1c0-6.3-0.9-12.4-2.6-18.3c-1.8-5.9-4.4-11-8-15.5
	s-8.1-8.1-13.4-10.8c-5.4-2.7-11.6-4.1-18.8-4.1c-7.4,0-13.7,1.4-19.1,4.2c-5.4,2.8-9.8,6.5-13.3,11.2c-3.5,4.6-6.1,9.9-7.8,15.8
	C971.8,111.6,970.9,117.6,970.9,123.8z"/>
<path class="st5" d="M1188.7,30.1h47.1l16.3,57.6l16.6-57.6h47.1l-30.8,89.2l13.4,38.9l40.2-128.1h55.8l-73.1,186.7h-42.6
	l-26.6-66.8l-26.3,66.8h-42.6l-73.1-186.7h55.5l40.5,128.1l12.9-38.9L1188.7,30.1z"/>
<path class="st5" d="M1413.8,216.9V30.1h51.3v186.7L1413.8,216.9L1413.8,216.9z"/>
<path class="st5" d="M1555,125.1v91.8h-51.3V30.1h40l75,94.9V30.1h51.3v186.7h-40.8L1555,125.1z"/>
<path class="st5" d="M1835.4,201.4c-13.3,11.2-28.7,16.8-46,16.8c-12.1,0-23.7-2.1-34.7-6.4c-11-4.3-20.7-10.6-28.9-18.8
	c-8.2-8.2-14.8-18.3-19.7-30.2c-4.9-11.9-7.4-25.5-7.4-40.8c0-13.1,2.5-25.4,7.4-36.7s11.7-21.1,20.3-29.5
	c8.6-8.3,18.7-14.9,30.4-19.7c11.7-4.8,24.2-7.2,37.7-7.2c8.4,0,16.5,0.9,24.2,2.8c7.7,1.8,14.9,4.6,21.4,8.2
	c6.6,3.6,12.5,7.9,17.8,12.9s9.6,10.7,12.9,17L1832.7,99c-3.7-7.4-9.2-13.3-16.6-17.8s-15.2-6.7-23.4-6.7c-6.1,0-11.7,1.2-16.8,3.7
	c-5.1,2.5-9.5,5.9-13.2,10.3s-6.6,9.6-8.7,15.6s-3.2,12.7-3.2,19.9c0,7.4,1.1,14,3.2,20s5,11.1,8.8,15.4c3.8,4.3,8.3,7.6,13.5,10
	c5.3,2.4,11.1,3.6,17.6,3.6c14.9,0,28.1-6.1,39.5-18.4h-32.3v-36.8h76.8v99.4h-42.3v-15.8H1835.4z"/>
<path class="st5" d="M663,445.4c-13.3,11.2-28.7,16.8-46,16.8c-12.1,0-23.7-2.1-34.7-6.4s-20.7-10.6-28.9-18.8
	c-8.2-8.2-14.8-18.3-19.7-30.2c-4.9-11.9-7.4-25.5-7.4-40.8c0-13.1,2.5-25.4,7.4-36.7c4.9-11.3,11.7-21.1,20.3-29.5
	c8.6-8.3,18.7-14.9,30.4-19.7c11.7-4.8,24.2-7.2,37.7-7.2c8.4,0,16.5,0.9,24.2,2.8c7.7,1.8,14.9,4.6,21.4,8.2
	c6.6,3.6,12.5,7.9,17.8,12.9s9.6,10.7,12.9,17L660.3,343c-3.7-7.4-9.2-13.3-16.6-17.8c-7.4-4.5-15.2-6.7-23.4-6.7
	c-6.1,0-11.7,1.2-16.8,3.7s-9.5,5.9-13.1,10.3c-3.7,4.4-6.6,9.6-8.7,15.6c-2.1,6-3.2,12.7-3.2,19.9c0,7.4,1.1,14,3.2,20
	c2.1,6,5,11.1,8.8,15.4s8.3,7.6,13.5,10c5.3,2.4,11.1,3.6,17.6,3.6c14.9,0,28.1-6.1,39.5-18.4h-32.3v-36.8h76.8v99.4H663V445.4z"/>
<path class="st5" d="M821.3,462.5c-14.2,0-27.1-2.7-38.7-8.2c-11.6-5.4-21.5-12.6-29.7-21.4c-8.2-8.9-14.6-19-19.2-30.4
	c-4.6-11.4-6.8-23.1-6.8-35.2c0-12.3,2.4-24.1,7.1-35.5c4.7-11.4,11.4-21.4,19.9-30.1s18.6-15.6,30.2-20.8
	c11.7-5.2,24.4-7.8,38.3-7.8c14.2,0,27.1,2.7,38.7,8.2c11.6,5.4,21.5,12.6,29.7,21.6c8.2,8.9,14.6,19.1,19.1,30.5s6.7,23.1,6.7,35
	c0,12.3-2.4,24.1-7.1,35.4c-4.7,11.3-11.3,21.3-19.7,30s-18.5,15.6-30.1,20.9C847.9,459.8,835.1,462.5,821.3,462.5z M778.9,367.8
	c0,6.3,0.9,12.4,2.6,18.3c1.8,5.9,4.4,11.1,7.9,15.6c3.5,4.6,7.9,8.2,13.3,11c5.3,2.8,11.7,4.2,19.1,4.2s13.8-1.4,19.2-4.3
	s9.9-6.7,13.3-11.3c3.4-4.6,6-9.9,7.6-15.9c1.7-6,2.5-12,2.5-18.1c0-6.3-0.9-12.4-2.6-18.3c-1.8-5.9-4.4-11-8-15.5
	s-8.1-8.1-13.4-10.8c-5.4-2.7-11.6-4.1-18.8-4.1c-7.4,0-13.7,1.4-19.1,4.2c-5.4,2.8-9.8,6.5-13.3,11.2c-3.5,4.6-6.1,9.9-7.8,15.8
	C779.8,355.6,778.9,361.6,778.9,367.8z"/>
<path class="st5" d="M944.9,460.9V274.1h71.8c15.4,0,29,2.5,40.8,7.4c11.7,4.9,21.6,11.6,29.5,20s13.8,18.3,17.9,29.6
	c4,11.3,6,23.4,6,36.2c0,14.2-2.2,27-6.7,38.5s-10.8,21.3-19.1,29.5c-8.2,8.2-18.1,14.5-29.7,18.9c-11.6,4.5-24.5,6.7-38.7,6.7
	L944.9,460.9L944.9,460.9z M1058.8,367.3c0-7.2-1-13.8-2.9-19.7c-1.9-6-4.7-11-8.3-15.3c-3.6-4.2-8-7.5-13.3-9.9s-11.1-3.5-17.6-3.5
	h-20.5v97.3h20.5c6.7,0,12.6-1.2,17.9-3.7s9.7-5.9,13.3-10.3c3.6-4.4,6.3-9.6,8.2-15.5C1057.8,380.8,1058.8,374.3,1058.8,367.3z"/>
</svg>
